<?xml version="1.0" encoding="UTF-8" standalone="no"?>
<!-- Created with Inkscape (http://www.inkscape.org/) -->

<svg
   xmlns:dc="http://purl.org/dc/elements/1.1/"
   xmlns:cc="http://creativecommons.org/ns#"
   xmlns:rdf="http://www.w3.org/1999/02/22-rdf-syntax-ns#"
   xmlns:svg="http://www.w3.org/2000/svg"
   xmlns="http://www.w3.org/2000/svg"
   xmlns:sodipodi="http://sodipodi.sourceforge.net/DTD/sodipodi-0.dtd"
   xmlns:inkscape="http://www.inkscape.org/namespaces/inkscape"
   width="210mm"
   height="297mm"
   viewBox="0 0 210 297"
   version="1.1"
   id="svg4675"
   inkscape:version="0.92.1 r15371"
   sodipodi:docname="truck.svg">
  <defs
     id="defs4669" />
  <sodipodi:namedview
     id="base"
     pagecolor="#ffffff"
     bordercolor="#666666"
     borderopacity="1.0"
     inkscape:pageopacity="0.0"
     inkscape:pageshadow="2"
     inkscape:zoom="0.24748737"
     inkscape:cx="160.21054"
     inkscape:cy="949.37644"
     inkscape:document-units="mm"
     inkscape:current-layer="layer1"
     showgrid="false"
     inkscape:window-width="1920"
     inkscape:window-height="1001"
     inkscape:window-x="-9"
     inkscape:window-y="-9"
     inkscape:window-maximized="1" />
  <metadata
     id="metadata4672">
    <rdf:RDF>
      <cc:Work
         rdf:about="">
        <dc:format>image/svg+xml</dc:format>
        <dc:type
           rdf:resource="http://purl.org/dc/dcmitype/StillImage" />
        <dc:title></dc:title>
      </cc:Work>
    </rdf:RDF>
  </metadata>
  <g
     inkscape:label="Layer 1"
     inkscape:groupmode="layer"
     id="layer1">
    <g
       id="g5244"
       transform="matrix(5.7045087,0,0,5.7045087,-151.37654,15.653405)">
      <path
         d="m 57.73581,31.172554 a 3.2126014,3.2126014 0 0 1 -3.203784,3.212589 3.2126014,3.2126014 0 0 1 -3.22137,-3.194955 3.2126014,3.2126014 0 0 1 3.186102,-3.230127 3.2126014,3.2126014 0 0 1 3.238858,3.177225"
         sodipodi:open="true"
         sodipodi:end="6.2722072"
         sodipodi:start="0"
         sodipodi:ry="3.2126014"
         sodipodi:rx="3.2126014"
         sodipodi:cy="31.172554"
         sodipodi:cx="54.523209"
         sodipodi:type="arc"
         id="path4485"
         style="opacity:0.56199999;fill:#ff0000;fill-opacity:1;stroke:#ff0000;stroke-width:0.02508914;stroke-miterlimit:4;stroke-dasharray:none;stroke-opacity:1" />
      <path
         d="m 39.015626,31.182335 a 3.2126014,3.2126014 0 0 1 -3.203785,3.212589 3.2126014,3.2126014 0 0 1 -3.22137,-3.194955 3.2126014,3.2126014 0 0 1 3.186102,-3.230127 3.2126014,3.2126014 0 0 1 3.238859,3.177225"
         sodipodi:open="true"
         sodipodi:end="6.2722072"
         sodipodi:start="0"
         sodipodi:ry="3.2126014"
         sodipodi:rx="3.2126014"
         sodipodi:cy="31.182335"
         sodipodi:cx="35.803024"
         sodipodi:type="arc"
         id="path4485-6"
         style="opacity:0.56199999;fill:#ff0000;fill-opacity:1;stroke:#ff0000;stroke-width:0.02508914;stroke-miterlimit:4;stroke-dasharray:none;stroke-opacity:1" />
      <path
         inkscape:connector-curvature="0"
         id="rect4506"
         d="m 29.320362,15.31936 c -0.0471,0 -0.0851,0.038 -0.0851,0.0851 v 15.77388 c 0,0.0472 0.038,0.0851 0.0851,0.0851 h 2.47703 a 3.9829965,3.9829965 0 0 1 3.94916,-3.98275 3.9829965,3.9829965 0 0 1 4.01566,3.93904 l 2.3e-4,0.0437 h 10.626575 c 0.04713,0 0.08512,-0.038 0.08512,-0.0851 V 15.40445 c 0,-0.0471 -0.03798,-0.0851 -0.08512,-0.0851 z"
         style="opacity:0.56199999;fill:#ff0000;fill-opacity:1;stroke:#ff0000;stroke-width:0.02508914;stroke-miterlimit:4;stroke-dasharray:none;stroke-opacity:1" />
      <path
         inkscape:connector-curvature="0"
         id="rect4506-8"
         d="m 50.988469,17.59279 v 11.82136 a 3.9829965,3.9829965 0 0 1 3.474998,-2.11078 3.9829965,3.9829965 0 0 1 4.015634,3.93894 l 1.56e-4,0.0438 h 2.999767 v -7.74833 l -3.056073,-5.94495 z m 6.797075,1.14072 2.469012,4.80408 -6.269615,-0.0166 0.008,-4.75765 z"
         style="opacity:0.56199999;fill:#ff0000;fill-opacity:1;stroke:#ff0000;stroke-width:0.02508914;stroke-miterlimit:4;stroke-dasharray:none;stroke-opacity:1" />
    </g>
  </g>
</svg>
